<!-- Generated by tools/docs/railroad.py from docs/specification/grammar.md. Do not edit. -->
<svg aria-label="Syntax diagram for equality_expression" class="railroad-diagram" height="122" role="img" viewBox="0 0 470.0 122" width="470.0" xmlns="http://www.w3.org/2000/svg" xmlns:xlink="http://www.w3.org/1999/xlink">
<g transform="translate(.5 .5)">
<g>
<path d="M20 21v20m10 -20v20m-10 -10h171.5" /><text style="text-anchor:start" x="20" y="16">equality_expression</text></g><path d="M191.5 31h10" /><g>
<path d="M201.5 31h0.0" /><path d="M420.0 31h0.0" /><path d="M201.5 31h10" /><g class="non-terminal ">
<path d="M211.5 31h0.0" /><path d="M410.0 31h0.0" /><rect height="22" width="198.5" x="211.5" y="20"></rect><a xlink:href="#rule-comparison_expression"><text x="310.75" y="35">comparison_expression</text></a></g><path d="M410.0 31h10" /><path d="M211.5 31a10 10 0 0 0 -10 10v10a10 10 0 0 0 10 10" /><g>
<path d="M211.5 61h60.75" /><path d="M349.25 61h60.75" /><path d="M272.25 61h20" /><g class="terminal ">
<path d="M292.25 61h0.0" /><path d="M329.25 61h0.0" /><rect height="22" rx="10" ry="10" width="37" x="292.25" y="50"></rect><text x="310.75" y="65">==</text></g><path d="M329.25 61h20" /><path d="M272.25 61a10 10 0 0 1 10 10v10a10 10 0 0 0 10 10" /><g class="terminal ">
<path d="M292.25 91h0.0" /><path d="M329.25 91h0.0" /><rect height="22" rx="10" ry="10" width="37" x="292.25" y="80"></rect><text x="310.75" y="95">!=</text></g><path d="M329.25 91a10 10 0 0 0 10 -10v-10a10 10 0 0 1 10 -10" /></g><path d="M410.0 61a10 10 0 0 0 10 -10v-10a10 10 0 0 0 -10 -10" /></g><path d="M420.0 31h10" /><path d="M 430.0 31 h 20 m -10 -10 v 20 m 10 -20 v 20"></path></g></svg>
